<svg width="34" height="32" viewBox="0 0 34 32" fill="none" xmlns="http://www.w3.org/2000/svg">
<path d="M32.0148 11.125L22.0968 9.68361L17.6632 0.695327C17.5421 0.449233 17.3429 0.250014 17.0968 0.128921C16.4796 -0.175767 15.7296 0.0781395 15.421 0.695327L10.9874 9.68361L1.06947 11.125C0.796033 11.1641 0.546033 11.293 0.354626 11.4883C0.123227 11.7261 -0.0042848 12.0461 0.000109945 12.3779C0.00450469 12.7097 0.140446 13.0262 0.378064 13.2578L7.55384 20.2539L5.85853 30.1328C5.81878 30.3626 5.84421 30.599 5.93194 30.8151C6.01967 31.0312 6.16619 31.2183 6.35489 31.3554C6.54359 31.4924 6.76692 31.5739 6.99955 31.5905C7.23217 31.6071 7.4648 31.5581 7.67103 31.4492L16.5421 26.7852L25.4132 31.4492C25.6554 31.5781 25.9367 31.6211 26.2062 31.5742C26.8859 31.457 27.3429 30.8125 27.2257 30.1328L25.5304 20.2539L32.7062 13.2578C32.9015 13.0664 33.0304 12.8164 33.0695 12.543C33.1749 11.8594 32.6984 11.2266 32.0148 11.125Z" fill="#FFB800"/>
</svg>
